<svg width="17" height="24" viewBox="0 0 17 24" fill="none" xmlns="http://www.w3.org/2000/svg">
<path d="M9.88968 21C9.11988 22.3333 7.19538 22.3333 6.42558 21L1.73206 12.8706C0.962262 11.5373 1.92451 9.87059 3.46411 9.87059L12.8511 9.87059C14.3907 9.87059 15.353 11.5373 14.5832 12.8706L9.88968 21Z" fill="black"/>
<path d="M10.3152 10C10.3152 11.1046 9.41982 12 8.31525 12V12C7.21068 12 6.31525 11.1046 6.31525 10L6.31525 2C6.31525 0.89543 7.21068 -5.36442e-07 8.31525 -5.36442e-07V-5.36442e-07C9.41982 -5.36442e-07 10.3152 0.89543 10.3152 2L10.3152 10Z" fill="black"/>
</svg>
