<svg width="37" height="37" viewBox="0 0 37 37" fill="none" xmlns="http://www.w3.org/2000/svg">
<mask id="mask0" mask-type="alpha" maskUnits="userSpaceOnUse" x="0" y="0" width="37" height="37">
<rect width="37" height="37" fill="#C4C4C4"/>
</mask>
<g mask="url(#mask0)">
<path d="M1.12132 23.1629C-0.0502526 21.9914 -0.0502525 20.0919 1.12132 18.9203V18.9203C2.29289 17.7487 4.19239 17.7487 5.36396 18.9203L15.9706 29.5269C17.1421 30.6985 17.1421 32.598 15.9706 33.7695V33.7695C14.799 34.9411 12.8995 34.9411 11.7279 33.7695L1.12132 23.1629Z" fill="#F3DC1E"/>
<path d="M11.7279 33.7696C10.5563 32.598 10.5563 30.6985 11.7279 29.5269L31.5269 9.72794C32.6985 8.55637 34.598 8.55637 35.7695 9.72794V9.72794C36.9411 10.8995 36.9411 12.799 35.7695 13.9706L15.9706 33.7696C14.799 34.9411 12.8995 34.9411 11.7279 33.7696V33.7696Z" fill="#F3DC1E"/>
</g>
</svg>
